Coordinates
version=1
nRows=27
nColumns=12
inDegrees=yes

Units are S.I. units (second, meters, Newtons, ...)
Angles are in degrees

endheader
time	SC_y	SC_z	SC_x	AC_y	AC_z	AC_x	GH_y	GH_z	GH_yy	EL_x	PS_y
       0.0              -32.85          19.14          39.74          63.15         -9.319         -3.449         -153.8          55.98         -15.56          108.8          56.48
  0.009431              -32.86          19.14          39.75          63.15         -9.317         -3.451         -153.8          55.98         -15.54          108.8          56.48
   0.01886              -32.86          19.13          39.75          63.15         -9.315         -3.453         -153.8          55.98         -15.52          108.8          56.47
   0.02829              -32.86          19.13          39.75          63.16         -9.312         -3.455         -153.7          55.98          -15.5          108.8          56.47
   0.03773              -32.87          19.12          39.75          63.16          -9.31         -3.457         -153.7          55.97         -15.47          108.8          56.46
   0.04716              -32.87          19.12          39.76          63.16         -9.307         -3.459         -153.7          55.97         -15.45          108.8          56.46
   0.05659              -32.87          19.12          39.76          63.16         -9.305         -3.462         -153.6          55.97         -15.43          108.8          56.45
   0.06602              -32.88          19.11          39.76          63.16         -9.302         -3.464         -153.6          55.97          -15.4          108.8          56.45
   0.07545              -32.88          19.11          39.76          63.16         -9.298         -3.467         -153.5          55.97         -15.37          108.8          56.44
   0.08488              -32.89           19.1          39.77          63.16         -9.295          -3.47         -153.5          55.97         -15.34          108.8          56.43
   0.09431              -32.89          19.09          39.77          63.16         -9.291         -3.473         -153.4          55.97         -15.31          108.8          56.43
    0.1037               -32.9          19.09          39.77          63.16         -9.288         -3.477         -153.3          55.97         -15.27          108.8          56.42
    0.1132              -32.91          19.08          39.78          63.16         -9.283         -3.481         -153.3          55.97         -15.23          108.8          56.41
    0.1226              -32.91          19.07          39.78          63.17         -9.279         -3.485         -153.2          55.97         -15.19          108.8           56.4
     0.132              -32.92          19.06          39.79          63.17         -9.274         -3.489         -153.1          55.97         -15.14          108.8           56.4
    0.1415              -32.93          19.05          39.79          63.17         -9.269         -3.494         -153.0          55.97          -15.1          108.8          56.39
    0.1509              -32.94          19.04           39.8          63.17         -9.263         -3.499         -152.9          55.97         -15.04          108.8          56.37
    0.1603              -32.94          19.03           39.8          63.17         -9.256         -3.505         -152.8          55.96         -14.98          108.8          56.36
    0.1698              -32.95          19.02          39.81          63.18          -9.25         -3.511         -152.7          55.96         -14.92          108.8          56.35
    0.1792              -32.96          19.01          39.82          63.18         -9.242         -3.518         -152.6          55.96         -14.85          108.8          56.34
    0.1886              -32.98          18.99          39.83          63.18         -9.234         -3.525         -152.4          55.96         -14.78          108.7          56.32
    0.1981              -32.99          18.98          39.83          63.18         -9.225         -3.533         -152.3          55.96         -14.69          108.7           56.3
    0.2075               -33.0          18.96          39.84          63.19         -9.215         -3.542         -152.1          55.96          -14.6          108.7          56.28
    0.2169              -33.02          18.94          39.85          63.19         -9.203         -3.552         -151.9          55.95          -14.5          108.7          56.26
    0.2264              -33.04          18.92          39.87          63.19         -9.191         -3.563         -151.7          55.95         -14.38          108.7          56.24
    0.2358              -33.06           18.9          39.88           63.2         -9.177         -3.576         -151.5          55.95         -14.26          108.7          56.21
    0.2452              -33.08          18.87          39.89           63.2         -9.162          -3.59         -151.2          55.95         -14.11          108.7          56.19
